G75*
%MOIN*%
%OFA0B0*%
%FSLAX24Y24*%
%IPPOS*%
%LPD*%
%AMOC8*
5,1,8,0,0,1.08239X$1,22.5*
%
%ADD10C,0.1418*%
%ADD11C,0.0516*%
%ADD12C,0.0780*%
D10*
X002369Y011393D03*
X018511Y002337D03*
D11*
X008944Y003594D02*
X008944Y004070D01*
X008156Y004070D02*
X008156Y003594D01*
X007369Y003594D02*
X007369Y004070D01*
X006582Y004070D02*
X006582Y003594D01*
X005794Y003594D02*
X005794Y004070D01*
X005007Y004070D02*
X005007Y003594D01*
X004219Y003594D02*
X004219Y004070D01*
X003432Y004070D02*
X003432Y003594D01*
X003432Y009581D02*
X003432Y010057D01*
X004219Y010057D02*
X004219Y009581D01*
X005007Y009581D02*
X005007Y010057D01*
X005794Y010057D02*
X005794Y009581D01*
X006582Y009581D02*
X006582Y010057D01*
X007369Y010057D02*
X007369Y009581D01*
X008156Y009581D02*
X008156Y010057D01*
X008944Y010057D02*
X008944Y009581D01*
D12*
X001779Y001550D03*
X002779Y001550D03*
X003779Y001550D03*
X004779Y001550D03*
X005779Y001550D03*
X006779Y001550D03*
X011023Y001550D03*
X012023Y001550D03*
X013023Y001550D03*
X014031Y001550D03*
X015031Y001550D03*
X016031Y001550D03*
X019298Y004487D03*
X019298Y005487D03*
X019298Y007833D03*
X019298Y008833D03*
X019298Y011180D03*
X019298Y012180D03*
X007881Y012180D03*
X006881Y012180D03*
X005881Y012180D03*
M02*
