%
M48
M72
T01C0.0157
T02C0.0197
T03C0.0276
T04C0.0400
%
T01
X7330Y6471
X8865Y7652
X11031Y9227
X12605Y9030
X13196Y8440
X14771Y8440
X12605Y7062
X11424Y6471
X12408Y5487
X14771Y5093
X17330Y5093
X18117Y5093
X18117Y5881
X18314Y7259
X17920Y8243
X18511Y8440
X18038Y9148
X17330Y9818
X14771Y11786
X12408Y12574
X12408Y10408
X11031Y2928
T02
X10440Y5684
X10440Y6078
X10440Y6471
X10440Y6865
X10440Y7259
X10440Y7652
T03
X8944Y9581
X8156Y9581
X7369Y9581
X6582Y9581
X5794Y9581
X5007Y9581
X4219Y9581
X3432Y9581
X3432Y4070
X4219Y4070
X5007Y4070
X5794Y4070
X6582Y4070
X7369Y4070
X8156Y4070
X8944Y4070
T04
X1779Y1550
X2779Y1550
X3779Y1550
X4779Y1550
X5779Y1550
X6779Y1550
X11023Y1550
X12023Y1550
X13023Y1550
X14031Y1550
X15031Y1550
X16031Y1550
X19298Y4487
X19298Y5487
X19298Y7833
X19298Y8833
X19298Y11180
X19298Y12180
X7881Y12180
X6881Y12180
X5881Y12180
M30
