G75*
%MOIN*%
%OFA0B0*%
%FSLAX24Y24*%
%IPPOS*%
%LPD*%
%AMOC8*
5,1,8,0,0,1.08239X$1,22.5*
%
%ADD10C,0.0476*%
%ADD11C,0.0740*%
%ADD12C,0.0317*%
%ADD13C,0.0160*%
%ADD14C,0.0277*%
D10*
X003432Y003594D02*
X003432Y004070D01*
X004219Y004070D02*
X004219Y003594D01*
X005007Y003594D02*
X005007Y004070D01*
X005794Y004070D02*
X005794Y003594D01*
X006582Y003594D02*
X006582Y004070D01*
X007369Y004070D02*
X007369Y003594D01*
X008156Y003594D02*
X008156Y004070D01*
X008944Y004070D02*
X008944Y003594D01*
X008944Y009581D02*
X008944Y010057D01*
X008156Y010057D02*
X008156Y009581D01*
X007369Y009581D02*
X007369Y010057D01*
X006582Y010057D02*
X006582Y009581D01*
X005794Y009581D02*
X005794Y010057D01*
X005007Y010057D02*
X005007Y009581D01*
X004219Y009581D02*
X004219Y010057D01*
X003432Y010057D02*
X003432Y009581D01*
D11*
X001779Y001550D03*
X002779Y001550D03*
X003779Y001550D03*
X004779Y001550D03*
X005779Y001550D03*
X006779Y001550D03*
X011023Y001550D03*
X012023Y001550D03*
X013023Y001550D03*
X014031Y001550D03*
X015031Y001550D03*
X016031Y001550D03*
X019298Y004487D03*
X019298Y005487D03*
X019298Y007833D03*
X019298Y008833D03*
X019298Y011180D03*
X019298Y012180D03*
X007881Y012180D03*
X006881Y012180D03*
X005881Y012180D03*
D12*
X010440Y007652D03*
X010440Y007259D03*
X010440Y006865D03*
X010440Y006471D03*
X010440Y006078D03*
X010440Y005684D03*
D13*
X010834Y005881D02*
X010637Y006078D01*
X010440Y006078D01*
X010834Y005881D02*
X010834Y005290D01*
X010637Y005093D01*
X010637Y002534D01*
X010834Y002337D01*
X011235Y002337D01*
X012023Y001550D01*
X011031Y002928D02*
X011031Y004896D01*
X011227Y005093D01*
X011227Y006078D01*
X011818Y006078D01*
X012015Y006274D01*
X012015Y006471D01*
X011031Y007456D01*
X011031Y009227D01*
X010716Y009306D02*
X011031Y009621D01*
X017133Y009621D01*
X017330Y009818D01*
X017330Y008519D01*
X017605Y008243D01*
X017920Y008243D01*
X018038Y008558D02*
X018393Y008558D01*
X018511Y008440D01*
X018038Y008558D02*
X018038Y009148D01*
X016936Y007849D02*
X019282Y007849D01*
X019298Y007833D01*
X018314Y007259D02*
X017330Y006274D01*
X017330Y005093D01*
X016936Y004503D02*
X019282Y004503D01*
X019298Y004487D01*
X018117Y005093D02*
X018117Y005881D01*
X016936Y004503D02*
X016345Y005093D01*
X014771Y005093D01*
X013393Y005684D02*
X013393Y008243D01*
X013196Y008440D01*
X012605Y009030D02*
X012605Y007062D01*
X011424Y006471D02*
X011031Y006865D01*
X010440Y006865D01*
X007251Y006865D01*
X006975Y006589D01*
X006975Y001747D01*
X006779Y001550D01*
X004613Y003085D02*
X004141Y002613D01*
X002763Y002613D01*
X001779Y001629D01*
X001779Y001550D01*
X004613Y003085D02*
X004613Y007613D01*
X006582Y009581D01*
X007881Y011393D02*
X008550Y010723D01*
X008550Y007377D01*
X008668Y007259D01*
X010440Y007259D01*
X010597Y007259D01*
X010755Y007416D01*
X010755Y008597D01*
X010716Y008637D01*
X010716Y009306D01*
X012408Y010408D02*
X012408Y012574D01*
X014771Y011786D02*
X018692Y011786D01*
X019298Y011180D01*
X016345Y008440D02*
X016936Y007849D01*
X016345Y008440D02*
X014771Y008440D01*
X011227Y006078D02*
X010834Y006471D01*
X010440Y006471D01*
X008865Y007652D02*
X008865Y009503D01*
X008944Y009581D01*
X007881Y011393D02*
X006109Y011393D01*
X005881Y011621D01*
X005881Y012180D01*
X007330Y006471D02*
X007330Y005684D01*
X008944Y004070D01*
X012408Y005487D02*
X013196Y005487D01*
X013393Y005684D01*
X012408Y005487D02*
X015031Y002865D01*
X015031Y001550D01*
D14*
X011031Y002928D03*
X012408Y005487D03*
X011424Y006471D03*
X012605Y007062D03*
X013196Y008440D03*
X012605Y009030D03*
X011031Y009227D03*
X012408Y010408D03*
X014771Y011786D03*
X012408Y012574D03*
X017330Y009818D03*
X018038Y009148D03*
X018511Y008440D03*
X017920Y008243D03*
X018314Y007259D03*
X018117Y005881D03*
X018117Y005093D03*
X017330Y005093D03*
X014771Y005093D03*
X014771Y008440D03*
X008865Y007652D03*
X007330Y006471D03*
M02*
