G75*
%MOIN*%
%OFA0B0*%
%FSLAX24Y24*%
%IPPOS*%
%LPD*%
%AMOC8*
5,1,8,0,0,1.08239X$1,22.5*
%
%ADD10C,0.0060*%
%ADD11C,0.0240*%
%ADD12C,0.0040*%
%ADD13C,0.0080*%
%ADD14C,0.0157*%
D10*
X000588Y002424D02*
X000645Y002367D01*
X000758Y002367D01*
X000815Y002424D01*
X000815Y002538D01*
X000702Y002538D01*
X000815Y002651D02*
X000758Y002708D01*
X000645Y002708D01*
X000588Y002651D01*
X000588Y002424D01*
X000956Y002367D02*
X000956Y002708D01*
X001127Y002708D01*
X001183Y002651D01*
X001183Y002538D01*
X001127Y002481D01*
X000956Y002481D01*
X001070Y002481D02*
X001183Y002367D01*
X001325Y002367D02*
X001552Y002367D01*
X001693Y002367D02*
X001920Y002367D01*
X002061Y002367D02*
X002061Y002708D01*
X002288Y002367D01*
X002288Y002708D01*
X001920Y002708D02*
X001693Y002708D01*
X001693Y002367D01*
X001693Y002538D02*
X001806Y002538D01*
X001552Y002708D02*
X001325Y002708D01*
X001325Y002367D01*
X001325Y002538D02*
X001438Y002538D01*
X003777Y002538D02*
X003890Y002538D01*
X003777Y002367D02*
X003777Y002708D01*
X004004Y002708D01*
X004145Y002708D02*
X004372Y002708D01*
X004259Y002708D02*
X004259Y002367D01*
X004514Y002367D02*
X004684Y002367D01*
X004741Y002424D01*
X004741Y002651D01*
X004684Y002708D01*
X004514Y002708D01*
X004514Y002367D01*
X004882Y002367D02*
X004995Y002367D01*
X004939Y002367D02*
X004939Y002708D01*
X004995Y002708D02*
X004882Y002708D01*
X006336Y002708D02*
X006336Y002367D01*
X006506Y002367D01*
X006563Y002424D01*
X006563Y002481D01*
X006506Y002538D01*
X006336Y002538D01*
X006336Y002708D02*
X006506Y002708D01*
X006563Y002651D01*
X006563Y002594D01*
X006506Y002538D01*
X006704Y002708D02*
X006704Y002367D01*
X006931Y002367D01*
X007073Y002367D02*
X007073Y002594D01*
X007186Y002708D01*
X007300Y002594D01*
X007300Y002367D01*
X007441Y002424D02*
X007498Y002367D01*
X007611Y002367D01*
X007668Y002424D01*
X007809Y002367D02*
X007809Y002708D01*
X007668Y002651D02*
X007611Y002708D01*
X007498Y002708D01*
X007441Y002651D01*
X007441Y002424D01*
X007300Y002538D02*
X007073Y002538D01*
X007809Y002481D02*
X008036Y002708D01*
X007866Y002538D02*
X008036Y002367D01*
X010864Y002397D02*
X010977Y002511D01*
X010977Y002171D01*
X010864Y002171D02*
X011091Y002171D01*
X011848Y002171D02*
X012075Y002397D01*
X012075Y002454D01*
X012018Y002511D01*
X011905Y002511D01*
X011848Y002454D01*
X011848Y002171D02*
X012075Y002171D01*
X012832Y002227D02*
X012889Y002171D01*
X013002Y002171D01*
X013059Y002227D01*
X013059Y002284D01*
X013002Y002341D01*
X012946Y002341D01*
X013002Y002341D02*
X013059Y002397D01*
X013059Y002454D01*
X013002Y002511D01*
X012889Y002511D01*
X012832Y002454D01*
X013133Y002565D02*
X013133Y002785D01*
X013133Y002565D02*
X013453Y002565D01*
X013620Y002454D02*
X013620Y002227D01*
X013676Y002171D01*
X013790Y002171D01*
X013846Y002227D01*
X013846Y002341D01*
X013733Y002341D01*
X013846Y002454D02*
X013790Y002511D01*
X013676Y002511D01*
X013620Y002454D01*
X013988Y002511D02*
X013988Y002171D01*
X014215Y002171D02*
X014215Y002511D01*
X014356Y002511D02*
X014526Y002511D01*
X014583Y002454D01*
X014583Y002227D01*
X014526Y002171D01*
X014356Y002171D01*
X014356Y002511D01*
X013988Y002511D02*
X014215Y002171D01*
X014794Y002171D02*
X015021Y002171D01*
X015134Y002284D01*
X015021Y002397D01*
X014794Y002397D01*
X014851Y002539D02*
X015078Y002539D01*
X015134Y002596D01*
X015134Y002709D01*
X015078Y002766D01*
X015078Y002907D02*
X014851Y002907D01*
X014794Y002964D01*
X014794Y003077D01*
X014851Y003134D01*
X015078Y003134D02*
X015134Y003077D01*
X015134Y002964D01*
X015078Y002907D01*
X014851Y002766D02*
X014794Y002709D01*
X014794Y002596D01*
X014851Y002539D01*
X015588Y002511D02*
X015588Y002284D01*
X015702Y002171D01*
X015815Y002284D01*
X015815Y002511D01*
X015956Y002511D02*
X016070Y002511D01*
X016013Y002511D02*
X016013Y002171D01*
X015956Y002171D02*
X016070Y002171D01*
X016202Y002171D02*
X016202Y002511D01*
X016429Y002171D01*
X016429Y002511D01*
X016838Y001983D02*
X017428Y001983D01*
X017428Y001984D02*
X017447Y001980D01*
X017464Y001974D01*
X017481Y001964D01*
X017495Y001952D01*
X017507Y001937D01*
X017517Y001921D01*
X017523Y001903D01*
X017527Y001884D01*
X017527Y001865D01*
X017527Y001235D01*
X017527Y001216D01*
X017523Y001197D01*
X017517Y001179D01*
X017508Y001163D01*
X017495Y001148D01*
X017481Y001136D01*
X017464Y001126D01*
X017446Y001120D01*
X017428Y001116D01*
X017428Y001117D02*
X016838Y001117D01*
X016837Y001116D02*
X016818Y001120D01*
X016801Y001126D01*
X016784Y001136D01*
X016770Y001148D01*
X016758Y001163D01*
X016748Y001179D01*
X016742Y001197D01*
X016738Y001216D01*
X016738Y001235D01*
X016739Y001235D02*
X016739Y001865D01*
X016738Y001865D02*
X016738Y001884D01*
X016742Y001903D01*
X016748Y001921D01*
X016758Y001937D01*
X016770Y001952D01*
X016784Y001964D01*
X016801Y001974D01*
X016818Y001980D01*
X016837Y001984D01*
X013453Y003685D02*
X013133Y003685D01*
X013133Y003465D01*
X012246Y003101D02*
X012246Y002761D01*
X012246Y002931D02*
X012019Y002931D01*
X012019Y002761D02*
X012019Y003101D01*
X011878Y003045D02*
X011821Y003101D01*
X011708Y003101D01*
X011651Y003045D01*
X011651Y002818D01*
X011708Y002761D01*
X011821Y002761D01*
X011878Y002818D01*
X011092Y004926D02*
X011135Y004970D01*
X011135Y005013D01*
X011092Y005057D01*
X010961Y005057D01*
X010961Y004970D01*
X011005Y004926D01*
X011092Y004926D01*
X010961Y005057D02*
X011048Y005143D01*
X011135Y005187D01*
X011092Y005320D02*
X011005Y005320D01*
X010961Y005364D01*
X010961Y005450D02*
X011048Y005494D01*
X011092Y005494D01*
X011135Y005450D01*
X011135Y005364D01*
X011092Y005320D01*
X010961Y005450D02*
X010961Y005580D01*
X011135Y005580D01*
X011092Y005714D02*
X011135Y005757D01*
X011135Y005931D01*
X011092Y005974D01*
X011005Y005974D01*
X010961Y005931D01*
X010961Y005887D01*
X011005Y005844D01*
X011135Y005844D01*
X011092Y005714D02*
X011005Y005714D01*
X010961Y005757D01*
X010840Y005757D02*
X010797Y005714D01*
X010710Y005714D01*
X010667Y005757D01*
X010667Y005931D01*
X010710Y005974D01*
X010797Y005974D01*
X010840Y005931D01*
X010797Y005580D02*
X010667Y005580D01*
X010667Y005320D01*
X010667Y005407D02*
X010797Y005407D01*
X010840Y005450D01*
X010840Y005537D01*
X010797Y005580D01*
X010754Y005407D02*
X010840Y005320D01*
X010797Y005187D02*
X010667Y005187D01*
X010667Y004926D01*
X010667Y005013D02*
X010797Y005013D01*
X010840Y005057D01*
X010840Y005143D01*
X010797Y005187D01*
X010754Y005013D02*
X010840Y004926D01*
X013133Y005911D02*
X013133Y006131D01*
X013133Y005911D02*
X013453Y005911D01*
X013133Y006811D02*
X013133Y007031D01*
X013453Y007031D01*
X010938Y008403D02*
X010765Y008403D01*
X010895Y008533D01*
X010895Y008273D01*
X010643Y008273D02*
X010557Y008360D01*
X010600Y008360D02*
X010470Y008360D01*
X010470Y008273D02*
X010470Y008533D01*
X010600Y008533D01*
X010643Y008490D01*
X010643Y008403D01*
X010600Y008360D01*
X010643Y008667D02*
X010557Y008753D01*
X010600Y008753D02*
X010470Y008753D01*
X010470Y008667D02*
X010470Y008927D01*
X010600Y008927D01*
X010643Y008883D01*
X010643Y008797D01*
X010600Y008753D01*
X010765Y008710D02*
X010808Y008667D01*
X010895Y008667D01*
X010938Y008710D01*
X010938Y008753D01*
X010895Y008797D01*
X010851Y008797D01*
X010895Y008797D02*
X010938Y008840D01*
X010938Y008883D01*
X010895Y008927D01*
X010808Y008927D01*
X010765Y008883D01*
X010808Y009060D02*
X010895Y009060D01*
X010938Y009104D01*
X010938Y009147D01*
X010895Y009190D01*
X010765Y009190D01*
X010765Y009104D01*
X010808Y009060D01*
X010765Y009190D02*
X010851Y009277D01*
X010938Y009321D01*
X010643Y009277D02*
X010600Y009321D01*
X010513Y009321D01*
X010470Y009277D01*
X010470Y009104D01*
X010513Y009060D01*
X010600Y009060D01*
X010643Y009104D01*
X013133Y009258D02*
X013133Y009478D01*
X013133Y009258D02*
X013453Y009258D01*
X013133Y010158D02*
X013133Y010378D01*
X013453Y010378D01*
X010938Y011619D02*
X010765Y011619D01*
X010938Y011793D01*
X010938Y011836D01*
X010895Y011880D01*
X010808Y011880D01*
X010765Y011836D01*
X010643Y011836D02*
X010643Y011749D01*
X010600Y011706D01*
X010470Y011706D01*
X010470Y011619D02*
X010470Y011880D01*
X010600Y011880D01*
X010643Y011836D01*
X010557Y011706D02*
X010643Y011619D01*
X010643Y012013D02*
X010557Y012100D01*
X010600Y012100D02*
X010470Y012100D01*
X010470Y012013D02*
X010470Y012273D01*
X010600Y012273D01*
X010643Y012230D01*
X010643Y012143D01*
X010600Y012100D01*
X010765Y012187D02*
X010851Y012273D01*
X010851Y012013D01*
X010765Y012013D02*
X010938Y012013D01*
X010895Y012407D02*
X010808Y012407D01*
X010765Y012450D01*
X010643Y012450D02*
X010600Y012407D01*
X010513Y012407D01*
X010470Y012450D01*
X010470Y012624D01*
X010513Y012667D01*
X010600Y012667D01*
X010643Y012624D01*
X010765Y012624D02*
X010808Y012667D01*
X010895Y012667D01*
X010938Y012624D01*
X010938Y012580D01*
X010895Y012537D01*
X010938Y012494D01*
X010938Y012450D01*
X010895Y012407D01*
X010895Y012537D02*
X010851Y012537D01*
X008358Y011369D02*
X008358Y011029D01*
X008131Y011369D01*
X008131Y011029D01*
X007999Y011029D02*
X007886Y011029D01*
X007942Y011029D02*
X007942Y011369D01*
X007886Y011369D02*
X007999Y011369D01*
X007744Y011369D02*
X007744Y011142D01*
X007631Y011029D01*
X007517Y011142D01*
X007517Y011369D01*
X007064Y011345D02*
X007064Y011232D01*
X007007Y011175D01*
X006780Y011175D01*
X006723Y011232D01*
X006723Y011345D01*
X006780Y011402D01*
X007007Y011402D02*
X007064Y011345D01*
X007007Y011033D02*
X007064Y010977D01*
X007064Y010863D01*
X007007Y010807D01*
X006780Y010807D01*
X006723Y010863D01*
X006723Y010977D01*
X006780Y011033D01*
X006315Y011086D02*
X006315Y011312D01*
X006259Y011369D01*
X006088Y011369D01*
X006088Y011029D01*
X006259Y011029D01*
X006315Y011086D01*
X005947Y011029D02*
X005947Y011369D01*
X005720Y011369D02*
X005947Y011029D01*
X005720Y011029D02*
X005720Y011369D01*
X005579Y011312D02*
X005522Y011369D01*
X005409Y011369D01*
X005352Y011312D01*
X005352Y011086D01*
X005409Y011029D01*
X005522Y011029D01*
X005579Y011086D01*
X005579Y011199D01*
X005465Y011199D01*
X004731Y011865D02*
X004731Y012495D01*
X004732Y012495D02*
X004732Y012514D01*
X004728Y012533D01*
X004722Y012551D01*
X004712Y012567D01*
X004700Y012582D01*
X004686Y012594D01*
X004669Y012604D01*
X004652Y012610D01*
X004633Y012614D01*
X004633Y012613D02*
X004042Y012613D01*
X004042Y012614D02*
X004024Y012610D01*
X004006Y012604D01*
X003989Y012594D01*
X003975Y012582D01*
X003962Y012567D01*
X003953Y012551D01*
X003947Y012533D01*
X003943Y012514D01*
X003943Y012495D01*
X003944Y012495D02*
X003944Y011865D01*
X003943Y011865D02*
X003943Y011846D01*
X003947Y011827D01*
X003953Y011809D01*
X003963Y011793D01*
X003975Y011778D01*
X003989Y011766D01*
X004006Y011756D01*
X004023Y011750D01*
X004042Y011746D01*
X004042Y011747D02*
X004633Y011747D01*
X004633Y011746D02*
X004652Y011750D01*
X004669Y011756D01*
X004686Y011766D01*
X004700Y011778D01*
X004712Y011793D01*
X004722Y011809D01*
X004728Y011827D01*
X004732Y011846D01*
X004732Y011865D01*
X006723Y010665D02*
X006950Y010665D01*
X007064Y010552D01*
X006950Y010438D01*
X006723Y010438D01*
X018344Y011619D02*
X018571Y011619D01*
X018457Y011619D02*
X018457Y011960D01*
X018344Y011846D01*
X018401Y008023D02*
X018344Y007966D01*
X018401Y008023D02*
X018514Y008023D01*
X018571Y007966D01*
X018571Y007909D01*
X018344Y007682D01*
X018571Y007682D01*
X018514Y005070D02*
X018571Y005013D01*
X018571Y004956D01*
X018514Y004900D01*
X018571Y004843D01*
X018571Y004786D01*
X018514Y004730D01*
X018401Y004730D01*
X018344Y004786D01*
X018457Y004900D02*
X018514Y004900D01*
X018514Y005070D02*
X018401Y005070D01*
X018344Y005013D01*
D11*
X002605Y004936D02*
X002605Y007495D01*
X001818Y007495D02*
X000440Y007495D01*
X000440Y009070D01*
X001818Y007495D02*
X001818Y007062D01*
X000440Y007062D01*
X000440Y006629D01*
X001857Y006629D01*
X001857Y006156D01*
X000440Y006156D01*
X000440Y005684D01*
X001857Y005684D01*
X001857Y005290D01*
X000401Y005290D01*
X000401Y004936D01*
X002330Y004936D01*
X002369Y004936D02*
X002605Y004936D01*
D12*
X004151Y005310D02*
X004672Y005310D01*
X004672Y005657D01*
X004585Y005826D02*
X004672Y005913D01*
X004672Y006086D01*
X004585Y006173D01*
X004498Y006173D01*
X004412Y006086D01*
X004412Y005913D01*
X004325Y005826D01*
X004238Y005826D01*
X004151Y005913D01*
X004151Y006086D01*
X004238Y006173D01*
X004151Y006341D02*
X004151Y006602D01*
X004238Y006688D01*
X004412Y006688D01*
X004498Y006602D01*
X004498Y006341D01*
X004672Y006341D02*
X004151Y006341D01*
X004151Y005657D02*
X004151Y005310D01*
X004412Y005310D02*
X004412Y005484D01*
X004412Y007373D02*
X004412Y007720D01*
X004325Y008404D02*
X004151Y008577D01*
X004672Y008577D01*
X004672Y008404D02*
X004672Y008751D01*
X004672Y008920D02*
X004325Y009267D01*
X004238Y009267D01*
X004151Y009180D01*
X004151Y009006D01*
X004238Y008920D01*
X004672Y008920D02*
X004672Y009267D01*
D13*
X001279Y001300D02*
X001529Y001050D01*
X002029Y001050D01*
X002279Y001300D01*
X002529Y001050D01*
X003029Y001050D01*
X003279Y001300D01*
X003529Y001050D01*
X004029Y001050D01*
X004279Y001300D01*
X004529Y001050D01*
X005029Y001050D01*
X005279Y001300D01*
X005529Y001050D01*
X006029Y001050D01*
X006279Y001300D01*
X006529Y001050D01*
X007029Y001050D01*
X007279Y001300D01*
X007279Y001800D01*
X007029Y002050D01*
X006529Y002050D01*
X006279Y001800D01*
X006029Y002050D01*
X005529Y002050D01*
X005279Y001800D01*
X005029Y002050D01*
X004529Y002050D01*
X004279Y001800D01*
X004029Y002050D01*
X003529Y002050D01*
X003279Y001800D01*
X003029Y002050D01*
X002529Y002050D01*
X002279Y001800D01*
X002029Y002050D01*
X001529Y002050D01*
X001279Y001800D01*
X001279Y001300D01*
X010523Y001300D02*
X010523Y001800D01*
X010773Y002050D01*
X011273Y002050D01*
X011523Y001800D01*
X011773Y002050D01*
X012273Y002050D01*
X012523Y001800D01*
X012773Y002050D01*
X013273Y002050D01*
X013523Y001800D01*
X013523Y001300D01*
X013273Y001050D01*
X012773Y001050D01*
X012523Y001300D01*
X012273Y001050D01*
X011773Y001050D01*
X011523Y001300D01*
X011273Y001050D01*
X010773Y001050D01*
X010523Y001300D01*
X013531Y001300D02*
X013781Y001050D01*
X014281Y001050D01*
X014531Y001300D01*
X014781Y001050D01*
X015281Y001050D01*
X015531Y001300D01*
X015781Y001050D01*
X016281Y001050D01*
X016531Y001300D01*
X016531Y001800D01*
X016281Y002050D01*
X015781Y002050D01*
X015531Y001800D01*
X015281Y002050D01*
X014781Y002050D01*
X014531Y001800D01*
X014281Y002050D01*
X013781Y002050D01*
X013531Y001800D01*
X013531Y001300D01*
X015401Y002771D02*
X015681Y002771D01*
X015862Y002841D02*
X015932Y002771D01*
X016072Y002771D01*
X016142Y002841D01*
X016142Y002911D01*
X016072Y002981D01*
X016002Y002981D01*
X016072Y002981D02*
X016142Y003051D01*
X016142Y003121D01*
X016072Y003191D01*
X015932Y003191D01*
X015862Y003121D01*
X015401Y003191D02*
X015401Y002771D01*
X013944Y004148D02*
X012842Y004148D01*
X012842Y005251D01*
X013944Y005251D01*
X013944Y004148D01*
X015401Y005597D02*
X015471Y005527D01*
X015611Y005527D01*
X015681Y005597D01*
X015862Y005597D02*
X015862Y005527D01*
X015862Y005597D02*
X016142Y005877D01*
X016142Y005947D01*
X015862Y005947D01*
X015862Y006118D02*
X016142Y006398D01*
X016142Y006468D01*
X016072Y006538D01*
X015932Y006538D01*
X015862Y006468D01*
X015401Y006538D02*
X015401Y006118D01*
X015681Y006118D01*
X015862Y006118D02*
X016142Y006118D01*
X015681Y005877D02*
X015611Y005947D01*
X015471Y005947D01*
X015401Y005877D01*
X015401Y005597D01*
X016923Y005537D02*
X016923Y005257D01*
X016993Y005186D01*
X017133Y005186D01*
X017203Y005257D01*
X017383Y005257D02*
X017453Y005186D01*
X017593Y005186D01*
X017664Y005257D01*
X017664Y005327D01*
X017593Y005397D01*
X017453Y005397D01*
X017383Y005467D01*
X017383Y005537D01*
X017453Y005607D01*
X017593Y005607D01*
X017664Y005537D01*
X017664Y005467D01*
X017593Y005397D01*
X017453Y005397D02*
X017383Y005327D01*
X017383Y005257D01*
X017203Y005537D02*
X017133Y005607D01*
X016993Y005607D01*
X016923Y005537D01*
X018798Y005737D02*
X018798Y005237D01*
X019048Y004987D01*
X018798Y004737D01*
X018798Y004237D01*
X019048Y003987D01*
X019548Y003987D01*
X019798Y004237D01*
X019798Y004737D01*
X019548Y004987D01*
X019798Y005237D01*
X019798Y005737D01*
X019548Y005987D01*
X019048Y005987D01*
X018798Y005737D01*
X019048Y007333D02*
X019548Y007333D01*
X019798Y007583D01*
X019798Y008083D01*
X019548Y008333D01*
X019798Y008583D01*
X019798Y009083D01*
X019548Y009333D01*
X019048Y009333D01*
X018798Y009083D01*
X018798Y008583D01*
X019048Y008333D01*
X018798Y008083D01*
X018798Y007583D01*
X019048Y007333D01*
X017717Y008550D02*
X017647Y008480D01*
X017506Y008480D01*
X017436Y008550D01*
X017436Y008690D02*
X017577Y008760D01*
X017647Y008760D01*
X017717Y008690D01*
X017717Y008550D01*
X017436Y008690D02*
X017436Y008900D01*
X017717Y008900D01*
X017256Y008830D02*
X017186Y008900D01*
X017046Y008900D01*
X016976Y008830D01*
X016976Y008550D01*
X017046Y008480D01*
X017186Y008480D01*
X017256Y008550D01*
X016072Y008873D02*
X016072Y009294D01*
X015862Y009084D01*
X016142Y009084D01*
X015681Y009224D02*
X015611Y009294D01*
X015471Y009294D01*
X015401Y009224D01*
X015401Y008944D01*
X015471Y008873D01*
X015611Y008873D01*
X015681Y008944D01*
X015681Y009464D02*
X015401Y009464D01*
X015401Y009884D01*
X015862Y009744D02*
X016002Y009884D01*
X016002Y009464D01*
X015862Y009464D02*
X016142Y009464D01*
X013944Y008597D02*
X012842Y008597D01*
X012842Y007495D01*
X013944Y007495D01*
X013944Y008597D01*
X013944Y010841D02*
X012842Y010841D01*
X012842Y011944D01*
X013944Y011944D01*
X013944Y010841D01*
X015401Y012290D02*
X015471Y012220D01*
X015611Y012220D01*
X015681Y012290D01*
X015862Y012220D02*
X016142Y012220D01*
X016002Y012220D02*
X016002Y012640D01*
X015862Y012500D01*
X015681Y012570D02*
X015611Y012640D01*
X015471Y012640D01*
X015401Y012570D01*
X015401Y012290D01*
X016976Y012177D02*
X016976Y011896D01*
X017046Y011826D01*
X017186Y011826D01*
X017256Y011896D01*
X017436Y011826D02*
X017717Y012106D01*
X017717Y012177D01*
X017647Y012247D01*
X017506Y012247D01*
X017436Y012177D01*
X017256Y012177D02*
X017186Y012247D01*
X017046Y012247D01*
X016976Y012177D01*
X017436Y011826D02*
X017717Y011826D01*
X018798Y011930D02*
X018798Y012430D01*
X019048Y012680D01*
X019548Y012680D01*
X019798Y012430D01*
X019798Y011930D01*
X019548Y011680D01*
X019798Y011430D01*
X019798Y010930D01*
X019548Y010680D01*
X019048Y010680D01*
X018798Y010930D01*
X018798Y011430D01*
X019048Y011680D01*
X018798Y011930D01*
X008381Y011930D02*
X008131Y011680D01*
X007631Y011680D01*
X007381Y011930D01*
X007131Y011680D01*
X006631Y011680D01*
X006381Y011930D01*
X006131Y011680D01*
X005631Y011680D01*
X005381Y011930D01*
X005381Y012430D01*
X005631Y012680D01*
X006131Y012680D01*
X006381Y012430D01*
X006631Y012680D01*
X007131Y012680D01*
X007381Y012430D01*
X007631Y012680D01*
X008131Y012680D01*
X008381Y012430D01*
X008381Y011930D01*
D14*
X012999Y011786D03*
X012999Y008440D03*
X012999Y005093D03*
M02*
