G75*
%MOIN*%
%OFA0B0*%
%FSLAX24Y24*%
%IPPOS*%
%LPD*%
%AMOC8*
5,1,8,0,0,1.08239X$1,22.5*
%
%ADD10C,0.1418*%
%ADD11C,0.2756*%
%ADD12C,0.0516*%
%ADD13R,0.0434X0.0217*%
%ADD14R,0.0434X0.0473*%
%ADD15C,0.0780*%
%ADD16R,0.0670X0.0906*%
%ADD17R,0.0473X0.0434*%
%ADD18R,0.0591X0.0434*%
%ADD19R,0.0540X0.0290*%
D10*
X002369Y011393D03*
X018511Y002337D03*
D11*
X018511Y002337D03*
X002369Y011393D03*
D12*
X003432Y010057D02*
X003432Y009581D01*
X004219Y009581D02*
X004219Y010057D01*
X005007Y010057D02*
X005007Y009581D01*
X005794Y009581D02*
X005794Y010057D01*
X006582Y010057D02*
X006582Y009581D01*
X007369Y009581D02*
X007369Y010057D01*
X008156Y010057D02*
X008156Y009581D01*
X008944Y009581D02*
X008944Y010057D01*
X008944Y004070D02*
X008944Y003594D01*
X008156Y003594D02*
X008156Y004070D01*
X007369Y004070D02*
X007369Y003594D01*
X006582Y003594D02*
X006582Y004070D01*
X005794Y004070D02*
X005794Y003594D01*
X005007Y003594D02*
X005007Y004070D01*
X004219Y004070D02*
X004219Y003594D01*
X003432Y003594D02*
X003432Y004070D01*
D13*
X012586Y004316D03*
X012586Y004572D03*
X012586Y004828D03*
X012586Y005083D03*
X014200Y005083D03*
X014200Y004828D03*
X014200Y004572D03*
X014200Y004316D03*
X014200Y007662D03*
X014200Y007918D03*
X014200Y008174D03*
X014200Y008430D03*
X012586Y008430D03*
X012586Y008174D03*
X012586Y007918D03*
X012586Y007662D03*
X012586Y011009D03*
X012586Y011265D03*
X012586Y011520D03*
X012586Y011776D03*
X014200Y011776D03*
X014200Y011520D03*
X014200Y011265D03*
X014200Y011009D03*
D14*
X011759Y011196D03*
X011090Y011196D03*
X011621Y011845D03*
X011621Y012515D03*
X011759Y010408D03*
X011090Y010408D03*
X011621Y009168D03*
X011621Y008499D03*
X011759Y007849D03*
X011090Y007849D03*
X011090Y007062D03*
X011759Y007062D03*
X011621Y005822D03*
X011621Y005152D03*
X011759Y004503D03*
X011090Y004503D03*
X011090Y003715D03*
X011759Y003715D03*
X017330Y003971D03*
X017330Y004641D03*
X017330Y007318D03*
X017330Y007987D03*
X017330Y010664D03*
X017330Y011333D03*
D15*
X001779Y001550D03*
X002779Y001550D03*
X003779Y001550D03*
X004779Y001550D03*
X005779Y001550D03*
X006779Y001550D03*
X011023Y001550D03*
X012023Y001550D03*
X013023Y001550D03*
X014031Y001550D03*
X015031Y001550D03*
X016031Y001550D03*
X019298Y004487D03*
X019298Y005487D03*
X019298Y007833D03*
X019298Y008833D03*
X019298Y011180D03*
X019298Y012180D03*
X007881Y012180D03*
X006881Y012180D03*
X005881Y012180D03*
D16*
X015204Y010605D03*
X016306Y010605D03*
X016306Y007259D03*
X015204Y007259D03*
X015204Y003912D03*
X016306Y003912D03*
D17*
X016090Y005093D03*
X015420Y005093D03*
X015420Y008440D03*
X016090Y008440D03*
X016090Y011786D03*
X015420Y011786D03*
D18*
X013826Y010192D03*
X012960Y009818D03*
X013826Y009444D03*
X013826Y006845D03*
X012960Y006471D03*
X013826Y006097D03*
X013826Y003499D03*
X012960Y003125D03*
X013826Y002751D03*
D19*
X017133Y001712D03*
X017133Y001388D03*
X004338Y012018D03*
X004338Y012342D03*
M02*
