G75*
%MOIN*%
%OFA0B0*%
%FSLAX24Y24*%
%IPPOS*%
%LPD*%
%AMOC8*
5,1,8,0,0,1.08239X$1,22.5*
%
%ADD10C,0.0476*%
%ADD11R,0.0394X0.0177*%
%ADD12R,0.0394X0.0433*%
%ADD13C,0.0740*%
%ADD14R,0.0630X0.0866*%
%ADD15R,0.0433X0.0394*%
%ADD16R,0.0551X0.0394*%
%ADD17R,0.0500X0.0250*%
%ADD18C,0.0160*%
%ADD19C,0.0317*%
%ADD20C,0.0277*%
D10*
X003432Y003594D02*
X003432Y004070D01*
X004219Y004070D02*
X004219Y003594D01*
X005007Y003594D02*
X005007Y004070D01*
X005794Y004070D02*
X005794Y003594D01*
X006582Y003594D02*
X006582Y004070D01*
X007369Y004070D02*
X007369Y003594D01*
X008156Y003594D02*
X008156Y004070D01*
X008944Y004070D02*
X008944Y003594D01*
X008944Y009581D02*
X008944Y010057D01*
X008156Y010057D02*
X008156Y009581D01*
X007369Y009581D02*
X007369Y010057D01*
X006582Y010057D02*
X006582Y009581D01*
X005794Y009581D02*
X005794Y010057D01*
X005007Y010057D02*
X005007Y009581D01*
X004219Y009581D02*
X004219Y010057D01*
X003432Y010057D02*
X003432Y009581D01*
D11*
X012586Y008430D03*
X012586Y008174D03*
X012586Y007918D03*
X012586Y007662D03*
X014200Y007662D03*
X014200Y007918D03*
X014200Y008174D03*
X014200Y008430D03*
X014200Y011009D03*
X014200Y011265D03*
X014200Y011520D03*
X014200Y011776D03*
X012586Y011776D03*
X012586Y011520D03*
X012586Y011265D03*
X012586Y011009D03*
X012586Y005083D03*
X012586Y004828D03*
X012586Y004572D03*
X012586Y004316D03*
X014200Y004316D03*
X014200Y004572D03*
X014200Y004828D03*
X014200Y005083D03*
D12*
X011759Y004503D03*
X011090Y004503D03*
X011621Y005152D03*
X011621Y005822D03*
X011759Y007062D03*
X011090Y007062D03*
X011090Y007849D03*
X011759Y007849D03*
X011621Y008499D03*
X011621Y009168D03*
X011759Y010408D03*
X011090Y010408D03*
X011090Y011196D03*
X011759Y011196D03*
X011621Y011845D03*
X011621Y012515D03*
X017330Y011333D03*
X017330Y010664D03*
X017330Y007987D03*
X017330Y007318D03*
X017330Y004641D03*
X017330Y003971D03*
X011759Y003715D03*
X011090Y003715D03*
D13*
X001779Y001550D03*
X002779Y001550D03*
X003779Y001550D03*
X004779Y001550D03*
X005779Y001550D03*
X006779Y001550D03*
X011023Y001550D03*
X012023Y001550D03*
X013023Y001550D03*
X014031Y001550D03*
X015031Y001550D03*
X016031Y001550D03*
X019298Y004487D03*
X019298Y005487D03*
X019298Y007833D03*
X019298Y008833D03*
X019298Y011180D03*
X019298Y012180D03*
X007881Y012180D03*
X006881Y012180D03*
X005881Y012180D03*
D14*
X015204Y010605D03*
X016306Y010605D03*
X016306Y007259D03*
X015204Y007259D03*
X015204Y003912D03*
X016306Y003912D03*
D15*
X016090Y005093D03*
X015420Y005093D03*
X015420Y008440D03*
X016090Y008440D03*
X016090Y011786D03*
X015420Y011786D03*
D16*
X013826Y010192D03*
X012960Y009818D03*
X013826Y009444D03*
X013826Y006845D03*
X012960Y006471D03*
X013826Y006097D03*
X013826Y003499D03*
X012960Y003125D03*
X013826Y002751D03*
D17*
X017133Y001712D03*
X017133Y001388D03*
X004338Y012018D03*
X004338Y012342D03*
D18*
X004766Y012770D01*
X006700Y012770D01*
X006881Y012589D01*
X006881Y012180D01*
X006881Y011605D01*
X007094Y011393D01*
X007881Y011393D01*
X008550Y010723D01*
X008550Y008400D01*
X007330Y007180D01*
X007330Y006471D01*
X007881Y006471D02*
X010440Y006471D01*
X010440Y006078D02*
X010834Y006078D01*
X011031Y006274D01*
X011031Y007003D01*
X011090Y007062D01*
X011090Y007849D01*
X010440Y007652D02*
X010440Y008243D01*
X010440Y011589D01*
X010696Y011845D01*
X011621Y011845D01*
X011690Y011776D01*
X012586Y011776D01*
X012586Y011520D02*
X012084Y011520D01*
X011759Y011196D01*
X012212Y011196D02*
X012212Y010861D01*
X011759Y010408D01*
X012212Y010211D02*
X012408Y010408D01*
X012586Y010585D01*
X012586Y011009D01*
X012586Y011265D02*
X012281Y011265D01*
X012212Y011196D01*
X012999Y010408D02*
X013393Y010802D01*
X013393Y010999D01*
X013658Y011265D01*
X014200Y011265D01*
X014899Y011265D01*
X015420Y011786D01*
X014771Y011786D02*
X014505Y011520D01*
X014200Y011520D01*
X014200Y011776D02*
X014603Y012180D01*
X019298Y012180D01*
X018314Y011196D02*
X018117Y011393D01*
X017389Y011393D01*
X017330Y011333D01*
X016877Y011786D01*
X016090Y011786D01*
X014968Y010605D02*
X014564Y011009D01*
X014200Y011009D01*
X014968Y010605D02*
X015204Y010605D01*
X015204Y010054D01*
X014594Y009444D01*
X013826Y009444D01*
X014259Y009030D02*
X014377Y009148D01*
X018038Y009148D01*
X018314Y009424D01*
X018314Y011196D01*
X017330Y010664D02*
X017330Y009818D01*
X017271Y010605D02*
X016306Y010605D01*
X017271Y010605D02*
X017330Y010664D01*
X019298Y008833D02*
X014603Y008833D01*
X014200Y008430D01*
X014200Y008174D02*
X014505Y008174D01*
X014771Y008440D01*
X014899Y007918D02*
X015420Y008440D01*
X016090Y008440D02*
X016877Y008440D01*
X017330Y007987D01*
X017527Y008184D01*
X017527Y008440D01*
X017645Y008558D01*
X018393Y008558D01*
X018511Y008440D01*
X018511Y008243D01*
X018314Y008046D01*
X018314Y007259D01*
X017920Y007456D02*
X017782Y007318D01*
X017330Y007318D01*
X017271Y007259D01*
X016306Y007259D01*
X017330Y007318D02*
X018117Y006530D01*
X018117Y005881D01*
X018117Y005093D02*
X018117Y004109D01*
X017979Y003971D01*
X017330Y003971D01*
X017271Y003912D01*
X016306Y003912D01*
X016345Y003873D01*
X016345Y002928D01*
X016031Y002613D01*
X016031Y001550D01*
X016193Y001712D01*
X017133Y001712D01*
X017133Y001388D02*
X016704Y000959D01*
X015558Y000959D01*
X015031Y001487D01*
X015031Y001550D01*
X014031Y001550D02*
X014031Y001700D01*
X013590Y002141D01*
X012999Y002141D01*
X012408Y002731D01*
X012408Y003715D01*
X012605Y003912D01*
X012605Y004296D01*
X012586Y004316D01*
X012595Y004306D01*
X012999Y004306D01*
X013196Y004503D01*
X013196Y005487D01*
X012861Y005822D01*
X011621Y005822D01*
X011621Y006078D01*
X011719Y006176D01*
X011424Y006471D01*
X011719Y006176D02*
X012605Y007062D01*
X012605Y007643D01*
X012586Y007662D01*
X012586Y007918D02*
X012281Y007918D01*
X012212Y007849D01*
X012212Y007515D01*
X011759Y007062D01*
X012999Y007062D02*
X012999Y006511D01*
X012960Y006471D01*
X012999Y007062D02*
X013393Y007456D01*
X013393Y007652D01*
X013658Y007918D01*
X014200Y007918D01*
X014899Y007918D01*
X014564Y007662D02*
X014968Y007259D01*
X015204Y007259D01*
X015204Y006707D01*
X014574Y006078D01*
X013845Y006078D01*
X013826Y006097D01*
X014603Y005487D02*
X019298Y005487D01*
X017330Y005093D02*
X016877Y005093D01*
X017330Y004641D01*
X016877Y005093D02*
X016090Y005093D01*
X015420Y005093D02*
X014899Y004572D01*
X014200Y004572D01*
X013855Y004572D01*
X012999Y003715D01*
X012999Y003164D01*
X012960Y003125D01*
X013826Y002751D02*
X013845Y002731D01*
X014574Y002731D01*
X015204Y003361D01*
X015204Y003912D01*
X014968Y003912D01*
X014564Y004316D01*
X014200Y004316D01*
X014200Y004828D02*
X014505Y004828D01*
X014771Y005093D01*
X014603Y005487D02*
X014200Y005083D01*
X012586Y005083D02*
X012586Y005310D01*
X012408Y005487D01*
X012586Y005083D02*
X011690Y005083D01*
X011621Y005152D01*
X012084Y004828D02*
X011759Y004503D01*
X012212Y004503D02*
X012212Y004168D01*
X011759Y003715D01*
X011090Y003715D02*
X011090Y003483D01*
X013023Y001550D01*
X011031Y001558D02*
X011023Y001550D01*
X011031Y001558D02*
X011031Y002928D01*
X011031Y003656D02*
X011090Y003715D01*
X011090Y004503D01*
X010440Y005152D01*
X010440Y005684D01*
X008078Y005684D01*
X007369Y004975D01*
X007369Y004070D01*
X006582Y004070D02*
X006582Y004581D01*
X008078Y006078D01*
X010440Y006078D01*
X010440Y006865D02*
X009653Y006865D01*
X008865Y007652D01*
X009298Y007652D02*
X010440Y007652D01*
X010440Y008243D02*
X010637Y008440D01*
X011562Y008440D01*
X011621Y008499D01*
X011690Y008430D01*
X012586Y008430D01*
X012595Y008440D01*
X013196Y008440D01*
X012586Y008174D02*
X012084Y008174D01*
X011759Y007849D01*
X012605Y009030D02*
X014259Y009030D01*
X012999Y009857D02*
X012999Y010408D01*
X012999Y009857D02*
X012960Y009818D01*
X012212Y009818D02*
X012212Y010211D01*
X012212Y009818D02*
X011621Y009227D01*
X011621Y009168D01*
X012468Y009168D01*
X012605Y009030D01*
X011031Y009227D02*
X011031Y010349D01*
X011090Y010408D01*
X011090Y011196D01*
X011621Y012515D02*
X011680Y012574D01*
X012408Y012574D01*
X008944Y011117D02*
X007881Y012180D01*
X008944Y011117D02*
X008944Y009581D01*
X008550Y008400D02*
X009298Y007652D01*
X007881Y006471D02*
X005794Y004385D01*
X005794Y004070D01*
X005401Y003204D02*
X003779Y001581D01*
X003779Y001550D01*
X004779Y001550D02*
X006156Y002928D01*
X008471Y002928D01*
X008944Y003400D01*
X008944Y004070D01*
X012084Y004828D02*
X012586Y004828D01*
X012586Y004572D02*
X012281Y004572D01*
X012212Y004503D01*
X014200Y007662D02*
X014564Y007662D01*
X017920Y007456D02*
X017920Y008243D01*
X005881Y012180D02*
X005719Y012018D01*
X004338Y012018D01*
X004219Y009581D02*
X004219Y006786D01*
X005401Y005605D01*
X005401Y003204D01*
X003826Y003164D02*
X002779Y002117D01*
X002779Y001550D01*
X003826Y003164D02*
X003826Y009188D01*
X003432Y009581D01*
D19*
X010440Y007652D03*
X010440Y007259D03*
X010440Y006865D03*
X010440Y006471D03*
X010440Y006078D03*
X010440Y005684D03*
D20*
X011424Y006471D03*
X012605Y007062D03*
X013196Y008440D03*
X012605Y009030D03*
X011031Y009227D03*
X012408Y010408D03*
X014771Y011786D03*
X012408Y012574D03*
X017330Y009818D03*
X018038Y009148D03*
X018511Y008440D03*
X017920Y008243D03*
X018314Y007259D03*
X018117Y005881D03*
X018117Y005093D03*
X017330Y005093D03*
X014771Y005093D03*
X012408Y005487D03*
X008865Y007652D03*
X007330Y006471D03*
X011031Y002928D03*
X014771Y008440D03*
M02*
